<svg width="24" height="29" viewBox="0 0 24 29" fill="none" xmlns="http://www.w3.org/2000/svg">
<path d="M23.1451 22.069C22.7361 23.0308 22.2309 23.9479 21.6371 24.806C20.844 25.9488 20.1927 26.7385 19.6935 27.178C18.9181 27.8962 18.0851 28.2657 17.1945 28.2865C16.5565 28.2865 15.7855 28.1033 14.8875 27.7308C13.9866 27.3598 13.1595 27.178 12.4019 27.178C11.6087 27.178 10.758 27.3598 9.84675 27.7308C8.93695 28.1033 8.20144 28.2984 7.63873 28.3163C6.78653 28.3536 5.93434 27.9751 5.0851 27.178C4.54306 26.7012 3.86515 25.8818 3.05135 24.7226C2.17996 23.4874 1.46365 22.0496 0.902409 20.4152C0.301296 18.6466 0 16.9362 0 15.2793C0 13.3826 0.406158 11.7452 1.21995 10.3745C1.83546 9.29793 2.71542 8.39944 3.77505 7.76557C4.81994 7.13334 6.01274 6.79292 7.23109 6.77923C7.91048 6.77923 8.80108 6.9908 9.90435 7.40799C11.0076 7.82517 11.7166 8.03674 12.0252 8.03674C12.2586 8.03674 13.0428 7.78792 14.378 7.29475C15.6378 6.83734 16.7012 6.64812 17.5726 6.72261C19.9357 6.91482 21.7095 7.85348 22.8896 9.54605C20.7776 10.8378 19.7334 12.6451 19.7541 14.965C19.7718 16.7723 20.4231 18.2756 21.6992 19.4691C22.2633 20.0137 22.9216 20.4495 23.6414 20.7549C23.4848 21.2123 23.3194 21.6488 23.1451 22.069ZM17.7292 0.567668C17.7292 1.98311 17.2152 3.30618 16.1946 4.52942C14.9599 5.9836 13.4682 6.82542 11.851 6.69281C11.8298 6.51482 11.8194 6.3357 11.8199 6.15644C11.8199 4.79612 12.4048 3.34194 13.449 2.15147C13.9689 1.54954 14.6306 1.04743 15.4325 0.648124C16.233 0.25478 16.9892 0.0372485 17.7011 0C17.7203 0.190712 17.7292 0.379935 17.7292 0.567668Z" fill="#0071E4"/>
</svg>
